<svg width="888" height="242" viewBox="0 0 888 242" fill="none" xmlns="http://www.w3.org/2000/svg">
<path d="M145.17 103.091H105.114C104.83 99.7765 104.072 96.7699 102.841 94.071C101.657 91.3722 100 89.0521 97.8693 87.1108C95.786 85.1222 93.2528 83.607 90.2699 82.5653C87.2869 81.4763 83.9015 80.9318 80.1136 80.9318C73.4848 80.9318 67.8741 82.5417 63.2812 85.7614C58.7358 88.9811 55.2794 93.5975 52.9119 99.6108C50.5919 105.624 49.4318 112.845 49.4318 121.273C49.4318 130.174 50.6155 137.632 52.983 143.645C55.3977 149.611 58.8778 154.109 63.4233 157.139C67.9688 160.122 73.4375 161.614 79.8295 161.614C83.4754 161.614 86.7424 161.164 89.6307 160.264C92.5189 159.317 95.0284 157.968 97.1591 156.216C99.2898 154.464 101.018 152.357 102.344 149.895C103.717 147.385 104.64 144.568 105.114 141.443L145.17 141.727C144.697 147.883 142.969 154.156 139.986 160.548C137.003 166.893 132.765 172.764 127.273 178.162C121.828 183.512 115.08 187.821 107.031 191.088C98.982 194.355 89.6307 195.989 78.9773 195.989C65.625 195.989 53.6458 193.124 43.0398 187.395C32.4811 181.666 24.1241 173.238 17.9688 162.111C11.8608 150.984 8.80682 137.371 8.80682 121.273C8.80682 105.08 11.9318 91.4432 18.1818 80.3636C24.4318 69.2367 32.8598 60.8324 43.4659 55.1506C54.072 49.4214 65.9091 46.5568 78.9773 46.5568C88.1629 46.5568 96.6146 47.8115 104.332 50.321C112.05 52.8305 118.821 56.5 124.645 61.3295C130.469 66.1117 135.156 72.0066 138.707 79.0142C142.259 86.0218 144.413 94.0473 145.17 103.091ZM218.622 194H162.656V48.5455H218.054C233.016 48.5455 245.942 51.4574 256.832 57.2812C267.77 63.0578 276.198 71.3911 282.116 82.2812C288.082 93.1241 291.065 106.121 291.065 121.273C291.065 136.424 288.106 149.445 282.187 160.335C276.269 171.178 267.888 179.511 257.045 185.335C246.202 191.112 233.395 194 218.622 194ZM202.145 160.477H217.201C224.398 160.477 230.53 159.317 235.596 156.997C240.71 154.677 244.593 150.676 247.244 144.994C249.943 139.312 251.292 131.405 251.292 121.273C251.292 111.14 249.919 103.233 247.173 97.5511C244.474 91.8693 240.497 87.8684 235.241 85.5483C230.033 83.2282 223.641 82.0682 216.065 82.0682H202.145V160.477ZM387.808 48.5455V194H348.319V48.5455H387.808ZM406.092 194V48.5455H510.922V80.3636H445.581V105.364H505.524V137.182H445.581V162.182H510.638V194H406.092ZM530.077 194V48.5455H569.565V162.182H628.372V194H530.077ZM622.544 80.3636V48.5455H748.965V80.3636H705.215V194H666.294V80.3636H622.544ZM841.805 94C841.427 89.2652 839.651 85.572 836.479 82.9205C833.354 80.2689 828.595 78.9432 822.203 78.9432C818.131 78.9432 814.793 79.4403 812.189 80.4347C809.632 81.3816 807.738 82.6837 806.507 84.3409C805.276 85.9981 804.637 87.892 804.589 90.0227C804.495 91.7746 804.802 93.3608 805.513 94.7812C806.27 96.1544 807.454 97.4091 809.064 98.5455C810.674 99.6345 812.733 100.629 815.243 101.528C817.752 102.428 820.735 103.233 824.192 103.943L836.124 106.5C844.173 108.205 851.062 110.454 856.791 113.247C862.52 116.041 867.208 119.331 870.854 123.119C874.499 126.86 877.175 131.074 878.879 135.761C880.631 140.449 881.531 145.562 881.578 151.102C881.531 160.667 879.14 168.763 874.405 175.392C869.67 182.021 862.899 187.063 854.092 190.52C845.333 193.976 834.798 195.705 822.487 195.705C809.845 195.705 798.813 193.834 789.391 190.094C780.016 186.353 772.724 180.6 767.516 172.835C762.355 165.023 759.75 155.032 759.703 142.864H797.203C797.44 147.314 798.552 151.055 800.541 154.085C802.53 157.116 805.323 159.412 808.922 160.974C812.568 162.537 816.9 163.318 821.919 163.318C826.133 163.318 829.66 162.797 832.501 161.756C835.342 160.714 837.497 159.27 838.964 157.423C840.432 155.577 841.19 153.47 841.237 151.102C841.19 148.877 840.456 146.936 839.035 145.278C837.662 143.574 835.39 142.059 832.217 140.733C829.045 139.36 824.76 138.081 819.362 136.898L804.874 133.773C791.995 130.979 781.838 126.315 774.405 119.781C767.018 113.2 763.349 104.227 763.396 92.8636C763.349 83.6307 765.811 75.5578 770.783 68.6449C775.802 61.6847 782.738 56.2633 791.592 52.3807C800.494 48.4981 810.697 46.5568 822.203 46.5568C833.945 46.5568 844.102 48.5218 852.672 52.4517C861.242 56.3816 867.847 61.9214 872.487 69.071C877.175 76.1733 879.542 84.483 879.589 94H841.805Z" fill="#E31837"/>
</svg>
